PathFileType	3	(X/Y/Z)	D:\minhoCalibration\240510\subject4_KPNP\preferred\preferred14.trc
DataRate	CameraRate	NumFrames	NumMarkers	Units	OrigDataRate	OrigDataStartFrame	OrigNumFrames
200.0	200.0	12	10	mm	200.0	233	91	
Frame#	Time	Left_Ankle_Outer1			Left_Ankle_Inner1			Left_Knee_Outer1			Left_Knee_Inner1			Left_Wrist1			Right_Wrist1			Right_Knee_Inner1			Right_Knee_Outer1			Right_Ankle_Inner1			Right_Ankle_Outer1			
		X1	Y1	Z1	X2	Y2	Z2	X3	Y3	Z3	X4	Y4	Z4	X5	Y5	Z5	X6	Y6	Z6	X7	Y7	Z7	X8	Y8	Z8	X9	Y9	Z9	X10	Y10	Z10	
233	1.155	-648.4408	387.11819	1558.4641	-576.32257	341.06079	1499.8799	-797.60931	568.63733	1109.442	-695.7182	530.73462	1077.0498	-662.48907	1006.774	1229.0155	-339.04578	896.74426	1331.6432	-427.52393	505.53995	1076.7137	-350.51318	501.96909	1156.0575	-593.97681	66.847878	1209.5681	-549.3075	75.509834	1246.0055
234	1.16	-651.31635	400.53845	1534.3813	-579.08429	353.603	1477.9904	-792.30365	582.02209	1083.5475	-689.45178	544.64008	1053.8402	-656.76056	1014.7874	1219.4706	-340.17987	899.02258	1335.4254	-425.84937	506.59061	1079.4763	-350.47235	503.42749	1160.5686	-592.92786	68.087448	1210.1156	-548.16919	77.35347	1246.4127
235	1.165	-655.15051	414.05524	1510.2336	-580.90948	367.22437	1455.7159	-785.92297	596.14868	1057.433	-681.00702	559.48798	1029.5962	-650.12543	1022.4904	1210.5328	-341.40082	901.03339	1339.3074	-424.03583	508.31403	1081.8645	-350.47565	505.07654	1164.9618	-591.88245	69.445885	1210.8104	-549.16235	77.182655	1247.9692
236	1.17	-659.98975	427.74866	1485.8704	-583.54871	381.15543	1433.5072	-777.66144	610.62592	1031.5475	-672.6217	575.16052	1006.614	-643.35712	1030.559	1201.8605	-340.4209	904.37341	1342.9143	-422.94836	510.05035	1084.6191	-350.56769	507.08847	1169.0103	-591.2702	71.367264	1211.847	-547.39691	79.182152	1248.1943
237	1.175	-665.87939	441.56229	1461.3934	-588.40302	394.96768	1411.3882	-768.81842	626.49915	1005.818	-661.01099	592.43811	983.07507	-636.49359	1038.7039	1193.7023	-341.53632	906.8045	1346.8359	-421.63391	511.58911	1086.6897	-350.54114	509.16827	1172.5641	-590.32275	72.971008	1212.1119	-545.96204	80.615623	1248.9088
238	1.18	-673.05463	455.67468	1436.9056	-593.51477	409.34918	1389.4049	-758.90576	643.22278	980.26129	-652.53149	607.99957	961.96692	-629.1828	1046.7457	1185.9227	-342.9762	909.30798	1350.7739	-420.13489	513.57379	1088.5911	-350.2012	511.50925	1175.9318	-589.39648	74.765335	1212.0271	-546.60724	81.286324	1248.6044
239	1.185	-681.00696	469.91147	1412.0701	-599.13336	423.84369	1368.1759	-747.53668	660.95825	955.27869	-637.35632	627.10657	939.24316	-621.93933	1054.8134	1178.7579	-344.76804	911.85046	1354.7699	-419.56903	515.0827	1091.62	-349.69351	513.74146	1178.9625	-589.02612	76.604828	1211.7808	-545.95117	83.827393	1249.1379
240	1.19	-689.80713	484.31729	1386.8873	-607.52985	437.57941	1345.2491	-735.2041	679.55249	930.47729	-627.96375	643.59399	920.67804	-614.66296	1063.2089	1172.1356	-346.92603	914.26862	1358.8257	-417.7088	517.39258	1092.6615	-349.19818	516.02826	1181.7899	-588.71863	78.818459	1211.1139	-545.87787	84.780052	1248.3079
241	1.195	-698.70172	498.55667	1361.3584	-614.76984	452.89752	1324.0619	-721.25085	699.1911	906.79803	-612.65533	663.78363	900.4046	-607.07458	1071.1711	1166.0402	-349.15399	916.55859	1362.7578	-416.01907	519.31732	1094.1594	-348.58319	518.19586	1184.2773	-588.24524	80.92215	1210.0887	-546.21912	86.571884	1248.249
242	1.2	-709.12689	513.6886	1335.5259	-623.33569	467.88135	1302.459	-706.0484	719.56378	884.06647	-597.82086	682.28723	881.06445	-599.45319	1079.0387	1160.3779	-351.82956	918.01831	1366.5184	-413.48611	521.08478	1094.8864	-347.75049	520.35944	1186.6938	-588.69482	83.179436	1209.1665	-546.07959	88.853271	1247.0095
243	1.205	-719.8913	529.1889	1309.1863	-632.98224	482.60571	1280.301	-689.91779	740.90948	862.60016	-582.35028	700.672	863.29779	-592.00201	1086.9406	1155.5472	-355.97586	919.78082	1370.9386	-410.76144	522.75488	1095.4349	-346.6727	522.40125	1189.0931	-587.83423	85.658768	1207.2949	-546.43311	90.701935	1245.7075
244	1.21	-730.45154	544.97412	1282.0063	-643.43793	497.20718	1257.6283	-671.79181	762.43866	841.93274	-564.89917	720.67218	847.76306	-584.22089	1094.4865	1150.8352	-359.548	921.39142	1375.1348	-409.0278	524.71082	1097.0365	-345.59528	524.3634	1191.4282	-588.65094	88.477562	1205.0345	-547.33923	93.06752	1244.9519
